<svg id="Capa_1" data-name="Capa 1" xmlns="http://www.w3.org/2000/svg" viewBox="0 0 614.5 390"><defs><style>.cls-1{fill:#fff;}</style></defs><path class="cls-1" d="M368.18,29.65h-89l-69,295h-24.5l-73-295H29.18v366h-24V5.65h126.5l56.5,228a180.35,180.35,0,0,1,4.75,26q1.74,15,2.75,26.5t1.5,13h1.5q.48-1.5,1.5-13.25t2.5-26.5a194.48,194.48,0,0,1,4-25.25l53.5-228.5h132v390h-24Zm-59.5,211q0-10.5.5-27.75t1.5-36.5q1-19.25,1.75-37.5t1.5-31.5q.75-13.25.75-17.25h-3a132.94,132.94,0,0,1-1.75,16.25q-1.77,11.75-4,27t-5,30q-2.76,14.74-5.25,24.25l-52.5,208h-92l-56-207.5q-2-7-4.5-20.25t-5-28.5q-2.52-15.26-4.5-28.5t-3-20.75h-3c.32,3,.75,8.83,1.25,17.5s1,18.92,1.5,30.75,1.07,24.25,1.75,37.25,1.16,25.33,1.5,37,.5,21.5.5,29.5v153.5h-24V64.15h29l83,307.5h54.5l77.5-307.5h31v331.5h-24Z" transform="translate(-5.18 -5.65)"/><path class="cls-1" d="M492.67,216.65q30-11,46.75-24t23.5-30.5q6.75-17.51,6.75-41,0-28-13.25-48.5A88.4,88.4,0,0,0,520.17,40.9q-23-11.25-53-11.25h-141q0-12,0-24h141q37.5,0,66,14.5t44.5,40.25q16,25.75,16,60.75,0,45.49-17.25,71.25t-49.25,37.25l92.5,166h-28.5Zm-50,29h-51v150h-24v-174h90.5l80,174h-26.5Zm-74.5-188h82q34,0,54.5,18.25t20.5,49.75q0,34.5-20.25,53.5t-54.25,19h-82.5Zm82.5,116.5q23,0,36.75-12.75t13.75-35.75q0-21-14.25-32.5t-36.75-11.5h-58v92.5Z" transform="translate(-5.18 -5.65)"/></svg>